Coordinates
version=1
nRows=4
nColumns=124
inDegrees=yes

Units are S.I. units (second, meters, Newtons, ...)
If the header above contains a line with 'inDegrees', this indicates whether rotational values are in degrees (yes) or radians (no).

endheader 
time	pelvis_tilt	pelvis_list	pelvis_rotation	pelvis_tx	pelvis_ty	pelvis_tz	hip_flexion_l	hip_adduction_l	hip_rotation_l	hip_flexion_r	hip_adduction_r	hip_rotation_r	knee_angle_l	knee_angle_r	ankle_angle_l	ankle_angle_r	subtalar_angle_l	subtalar_angle_r	mtp_angle_l	mtp_angle_r	lumbar_extension	lumbar_bending	lumbar_rotation	arm_flex_l	arm_add_l	arm_rot_l	arm_flex_r	arm_add_r	arm_rot_r	elbow_flex_l	elbow_flex_r	glut_med1_l/activation	glut_med2_l/activation	glut_med3_l/activation	glut_min1_l/activation	glut_min2_l/activation	glut_min3_l/activation	semimem_l/activation	semiten_l/activation	bifemlh_l/activation	bifemsh_l/activation	sar_l/activation	add_long_l/activation	add_brev_l/activation	add_mag1_l/activation	add_mag2_l/activation	add_mag3_l/activation	tfl_l/activation	pect_l/activation	grac_l/activation	glut_max1_l/activation	glut_max2_l/activation	glut_max3_l/activation	iliacus_l/activation	psoas_l/activation	quad_fem_l/activation	gem_l/activation	peri_l/activation	rect_fem_l/activation	vas_med_l/activation	vas_int_l/activation	vas_lat_l/activation	med_gas_l/activation	lat_gas_l/activation	soleus_l/activation	tib_post_l/activation	flex_dig_l/activation	flex_hal_l/activation	tib_ant_l/activation	per_brev_l/activation	per_long_l/activation	per_tert_l/activation	ext_dig_l/activation	ext_hal_l/activation	ercspn_l/activation	intobl_l/activation	extobl_l/activation	glut_med1_r/activation	glut_med2_r/activation	glut_med3_r/activation	glut_min1_r/activation	glut_min2_r/activation	glut_min3_r/activation	semimem_r/activation	semiten_r/activation	bifemlh_r/activation	bifemsh_r/activation	sar_r/activation	add_long_r/activation	add_brev_r/activation	add_mag1_r/activation	add_mag2_r/activation	add_mag3_r/activation	tfl_r/activation	pect_r/activation	grac_r/activation	glut_max1_r/activation	glut_max2_r/activation	glut_max3_r/activation	iliacus_r/activation	psoas_r/activation	quad_fem_r/activation	gem_r/activation	peri_r/activation	rect_fem_r/activation	vas_med_r/activation	vas_int_r/activation	vas_lat_r/activation	med_gas_r/activation	lat_gas_r/activation	soleus_r/activation	tib_post_r/activation	flex_dig_r/activation	flex_hal_r/activation	tib_ant_r/activation	per_brev_r/activation	per_long_r/activation	per_tert_r/activation	ext_dig_r/activation	ext_hal_r/activation	ercspn_r/activation	intobl_r/activation	extobl_r/activation	
          0.80099559	         -0.41317249	         -3.60109549	        -14.32382653	          0.41158043	          0.96777203	          0.01153096	         38.43512604	         -1.56694694	         20.19527949	         -7.23173650	          2.71229338	         -5.05715841	        -38.25080979	        -26.42606417	          4.16323631	         15.48447536	         -9.52067088	          2.09200160	          0.26022795	         37.49949459	         -7.68688579	          9.77799451	          3.63545944	         -2.31600592	        -13.48544383	          9.06888126	         -2.39050907	        -14.85124946	          5.69111135	         48.03481305	         78.82861809	          0.38961945	          0.28459089	          0.45117856	          0.43833356	          0.46144096	          0.49908127	          0.05002590	          0.05031812	          0.05011607	          0.30670664	          0.67619079	          0.57426337	          0.49395379	          0.45314218	          0.36535580	          0.19506521	          0.60434994	          0.58036023	          0.45151324	          0.39108175	          0.35183325	          0.31159761	          0.77043015	          0.75171286	          0.71074252	          0.55321222	          0.63468858	          0.25516653	          0.17368640	          0.16715166	          0.22594509	          0.11358365	          0.19042301	          0.16601407	          0.30542644	          0.49374697	          0.49031998	          0.59051619	          0.65868974	          0.60169312	          0.67308226	          0.66616529	          0.61430944	          0.09837409	          0.31535901	          0.15963431	          0.98416823	          0.63155069	          0.30645301	          0.82329307	          0.76119980	          0.62169664	          0.51609859	          0.22545857	          0.35938752	          0.49030977	          0.62644795	          0.32949371	          0.28183915	          0.37879825	          0.48736763	          0.39402946	          0.81988320	          0.53609062	          0.41045795	          0.55524095	          0.49104685	          0.31765870	          0.86111223	          0.85798386	          0.16610255	          0.45279298	          0.46547760	          0.56968263	          0.45447880	          0.46796344	          0.37091037	          0.51240866	          0.56306837	          0.48139592	          0.81394515	          0.61737054	          0.63175704	          0.13331433	          0.51747693	          0.53333532	          0.50477958	          0.34039028	          0.51413763	          0.05004464	          0.05008932	          0.05061702	
          0.83303541	         -1.45663237	         -3.42928124	        -13.95913249	          0.43847195	          0.96246750	          0.00848110	         39.19733252	         -1.64384802	         20.00958219	         -7.95809374	          2.24481687	         -5.98328908	        -35.07981815	        -25.84093299	          3.55681392	         13.82497932	        -10.81116015	          1.47974723	          0.25293994	         39.79216535	         -7.46242005	          8.94955990	          5.11988344	         -2.63461765	        -13.46684260	          9.46398689	          0.43365039	        -14.50372160	          6.33554216	         38.96102167	         89.05477678	          0.38696477	          0.26193825	          0.44095859	          0.41878541	          0.44128090	          0.47689737	          0.05005245	          0.14264255	          0.17599264	          0.40520459	          0.66523458	          0.56933373	          0.49546195	          0.51074733	          0.43513534	          0.28264212	          0.58055282	          0.58090018	          0.50309491	          0.40691481	          0.41323652	          0.44247750	          0.73733926	          0.72335572	          0.73221775	          0.55651903	          0.60347469	          0.28163958	          0.19471013	          0.19382105	          0.23041041	          0.10895086	          0.17530993	          0.22452469	          0.31200386	          0.47960798	          0.47451247	          0.62047683	          0.67452860	          0.61176263	          0.64678780	          0.72645648	          0.63204815	          0.11950743	          0.26885433	          0.10476412	          0.91787039	          0.57901817	          0.29752960	          0.79607761	          0.73742364	          0.61207692	          0.51014619	          0.18662892	          0.33838638	          0.49444391	          0.64905872	          0.42142824	          0.32640805	          0.39257754	          0.48837192	          0.37084497	          0.82321681	          0.55747378	          0.42683590	          0.55199277	          0.49050132	          0.32590971	          0.92883196	          0.92106385	          0.21447408	          0.47174514	          0.48470060	          0.59764811	          0.44784741	          0.45759008	          0.36070195	          0.53198650	          0.57260235	          0.51891701	          0.84108241	          0.62393803	          0.64031536	          0.08691778	          0.52666797	          0.53579100	          0.48364852	          0.26893510	          0.49331323	          0.05008830	          0.05006601	          0.05048173	
          0.86507523	         -2.51745828	         -3.38035343	        -13.62711754	          0.46929678	          0.95686315	          0.00522240	         39.40222903	         -1.43521011	         19.58543323	         -8.78137266	          1.83865090	         -6.73637216	        -34.05847246	        -25.43373383	          2.68515155	         11.47425568	        -11.69805263	          0.74817034	          0.27406257	         42.33050491	         -6.96633105	          8.20344056	          6.63121576	         -3.76174698	        -13.46374675	          9.50600236	          3.43527450	        -14.30499085	          6.83769031	         31.07367589	         97.91554982	          0.38187404	          0.25791473	          0.46906626	          0.41452067	          0.43317650	          0.47716444	          0.17485716	          0.28530823	          0.31804119	          0.42165492	          0.65362709	          0.56570326	          0.53016677	          0.54740154	          0.48897289	          0.38551599	          0.54628486	          0.58741834	          0.52555705	          0.44921428	          0.50104431	          0.56514205	          0.64568664	          0.62021672	          0.73642867	          0.56058316	          0.65104386	          0.39883212	          0.33096363	          0.33364190	          0.24094384	          0.07137395	          0.11464038	          0.14654766	          0.33979809	          0.48836773	          0.48699818	          0.70777867	          0.71890906	          0.61739818	          0.71157259	          0.78486792	          0.63543783	          0.14920478	          0.18773053	          0.06833263	          0.85138356	          0.50379226	          0.27959570	          0.73978800	          0.69061101	          0.58977603	          0.50961666	          0.21225706	          0.34599174	          0.54833262	          0.67809011	          0.54278633	          0.39356188	          0.42927655	          0.49877307	          0.37673621	          0.77597420	          0.58908267	          0.47072055	          0.54905407	          0.48946535	          0.34135110	          0.95665843	          0.92837175	          0.30370150	          0.47904079	          0.48912613	          0.59544285	          0.40214179	          0.40961898	          0.32413992	          0.54610572	          0.58229842	          0.53080490	          0.84968799	          0.62654649	          0.64210426	          0.05670008	          0.56432423	          0.54323537	          0.46700580	          0.20383535	          0.46667215	          0.07895650	          0.05001668	          0.05043680	
          0.89711506	         -3.58247898	         -3.43568721	        -13.31362160	          0.50326580	          0.95194614	          0.00183892	         38.94072593	         -0.95075989	         19.32413412	         -9.44916189	          1.45034265	         -7.35410718	        -34.86003051	        -25.49106929	          3.47848907	          8.06247412	        -12.36905247	         -0.09237019	          0.24434360	         45.03929766	         -6.20304561	          7.54551863	          8.11552032	         -5.55580674	        -13.48222273	          8.99212497	          6.54957287	        -14.21171766	          7.18801735	         24.24931083	        105.16393154	          0.38444470	          0.37793105	          0.65189346	          0.40427539	          0.44530230	          0.51769174	          0.19066989	          0.30829682	          0.32404026	          0.33456339	          0.56912932	          0.45528835	          0.44068342	          0.53283856	          0.50454649	          0.44213427	          0.54053529	          0.56615280	          0.49378810	          0.59162257	          0.64817497	          0.64114813	          0.46641645	          0.48310181	          0.78615769	          0.57360252	          0.66238125	          0.59471044	          0.58752205	          0.58521406	          0.24894018	          0.05017843	          0.17575117	          0.16303123	          0.42417931	          0.51578242	          0.52285940	          0.63987392	          0.63846443	          0.58403296	          0.63497527	          0.70095419	          0.61022003	          0.11401088	          0.12241877	          0.05011795	          0.77770029	          0.44735307	          0.23918463	          0.73116424	          0.66554766	          0.54899880	          0.51879736	          0.26299721	          0.35822598	          0.53847010	          0.63671819	          0.61736444	          0.43954425	          0.46207831	          0.51728853	          0.41093032	          0.74376651	          0.58908298	          0.48785599	          0.55239196	          0.50140833	          0.38014595	          0.93937741	          0.92930178	          0.28734550	          0.48063760	          0.48209529	          0.58864399	          0.40710237	          0.41031606	          0.33046299	          0.52259249	          0.58082989	          0.45976674	          0.85971410	          0.63596994	          0.64306551	          0.05004562	          0.55412510	          0.49231800	          0.45943946	          0.18034498	          0.45679536	          0.10076810	          0.05000270	          0.05038038	
